<svg width="200" height="100" viewBox="0 0 200 100" xmlns="http://www.w3.org/2000/svg">
  <g>
    <path d="M20 80L50 20L80 80" stroke="#0047AB" stroke-width="8" fill="none" />
    <circle cx="50" cy="20" r="5" fill="#0047AB" />
    <circle cx="20" cy="80" r="5" fill="#0047AB" />
    <circle cx="80" cy="80" r="5" fill="#0047AB" />
    <path d="M50 20L65 35M65 35L80 50M65 35C65 35 75 35 75 45" stroke="#0047AB" stroke-width="3" fill="none" />
    <circle cx="65" cy="35" r="3" fill="#0047AB" />
    <circle cx="80" cy="50" r="3" fill="#0047AB" />
    <circle cx="75" cy="45" r="3" fill="#0047AB" />
    <rect x="5" y="5" width="5" height="5" fill="#D32F2F" />
    <rect x="190" y="5" width="5" height="5" fill="#D32F2F" />
    <rect x="5" y="90" width="5" height="5" fill="#D32F2F" />
    <rect x="190" y="90" width="5" height="5" fill="#D32F2F" />
    <text x="100" y="60" font-family="Arial" font-size="24" font-weight="bold" text-anchor="middle" fill="#0047AB">VANGUARD</text>
  </g>
</svg>
